<svg xmlns="http://www.w3.org/2000/svg" version="1.1" xmlns:xlink="http://www.w3.org/1999/xlink" xmlns:svgjs="http://svgjs.dev/svgjs" width="1440" height="560" preserveAspectRatio="none" viewBox="0 0 1440 560"><g mask="url(&quot;#SvgjsMask1032&quot;)" fill="none"><rect width="1440" height="560" x="0" y="0" fill="url(&quot;#SvgjsLinearGradient1033&quot;)"></rect><path d="M1440 0L1131.75 0L1440 103.58z" fill="rgba(255, 255, 255, .1)"></path><path d="M1131.75 0L1440 103.58L1440 123.16L577.92 0z" fill="rgba(255, 255, 255, .075)"></path><path d="M577.92 0L1440 123.16L1440 301.5L314.74999999999994 0z" fill="rgba(255, 255, 255, .05)"></path><path d="M314.75 0L1440 301.5L1440 468.31L102.59 0z" fill="rgba(255, 255, 255, .025)"></path><path d="M0 560L701.7 560L0 321.99z" fill="rgba(0, 0, 0, .1)"></path><path d="M0 321.99L701.7 560L816.0400000000001 560L0 257.21000000000004z" fill="rgba(0, 0, 0, .075)"></path><path d="M0 257.21000000000004L816.0400000000001 560L943.7900000000001 560L0 209.60000000000002z" fill="rgba(0, 0, 0, .05)"></path><path d="M0 209.60000000000002L943.7900000000001 560L1192.39 560L0 171.34000000000003z" fill="rgba(0, 0, 0, .025)"></path></g><defs><mask id="SvgjsMask1032"><rect width="1440" height="560" fill="#ffffff"></rect></mask><linearGradient x1="15.28%" y1="-39.29%" x2="84.72%" y2="139.29%" gradientUnits="userSpaceOnUse" id="SvgjsLinearGradient1033"><stop stop-color="#0e2a47" offset="0"></stop><stop stop-color="rgba(1, 13, 28, 1)" offset="1"></stop></linearGradient></defs></svg>